<?xml version="1.0" encoding="UTF-8" standalone="no"?>
<svg
   xmlns:dc="http://purl.org/dc/elements/1.1/"
   xmlns:cc="http://creativecommons.org/ns#"
   xmlns:rdf="http://www.w3.org/1999/02/22-rdf-syntax-ns#"
   xmlns:svg="http://www.w3.org/2000/svg"
   xmlns="http://www.w3.org/2000/svg"
   xmlns:sodipodi="http://sodipodi.sourceforge.net/DTD/sodipodi-0.dtd"
   xmlns:inkscape="http://www.inkscape.org/namespaces/inkscape"
   inkscape:version="1.0 (4035a4fb49, 2020-05-01)"
   sodipodi:docname="WolfyLogo.svg"
   viewBox="0 0 1440 1440"
   height="1440"
   width="1440"
   xml:space="preserve"
   id="svg74"
   version="1.1"><metadata
     id="metadata80"><rdf:RDF><cc:Work
         rdf:about=""><dc:format>image/svg+xml</dc:format><dc:type
           rdf:resource="http://purl.org/dc/dcmitype/StillImage" /><dc:title></dc:title></cc:Work></rdf:RDF></metadata><defs
     id="defs78"><clipPath
       id="clipPath94"
       clipPathUnits="userSpaceOnUse"><path
         id="path92"
         d="M 0,1080 H 1080 V 0 H 0 Z" /></clipPath></defs><sodipodi:namedview
     inkscape:current-layer="g82"
     inkscape:window-maximized="1"
     inkscape:window-y="-8"
     inkscape:window-x="-8"
     inkscape:cy="715.57411"
     inkscape:cx="757.32124"
     inkscape:zoom="0.27290847"
     showgrid="false"
     id="namedview76"
     inkscape:window-height="745"
     inkscape:window-width="1366"
     inkscape:pageshadow="2"
     inkscape:pageopacity="0"
     guidetolerance="10"
     gridtolerance="10"
     objecttolerance="10"
     borderopacity="1"
     bordercolor="#666666"
     pagecolor="#ffffff" /><g
     transform="matrix(1.3333333,0,0,-1.3333333,0,1440)"
     inkscape:label="LogoWolfyHD"
     inkscape:groupmode="layer"
     id="g82"><circle
       transform="scale(1,-1)"
       r="535.89398"
       cy="-540"
       cx="540"
       id="path124"
       style="fill:#04030f;fill-opacity:1;stroke-width:0.75;stroke-linecap:round;stroke-linejoin:round;paint-order:markers fill stroke;stop-color:#000000" /><g
       id="g88"><g
         clip-path="url(#clipPath94)"
         id="g90"><g
           transform="translate(833.5479,721.979)"
           id="g96"><path
             id="path98"
             style="fill:#04030f;fill-opacity:1;fill-rule:nonzero;stroke:none"
             d="m 0,0 c 32.071,134.079 -76.842,251.207 -76.842,251.207 -10.347,-94.653 -48.396,-181.583 -74.63,-232.185 -37.069,23.282 -83.401,37.83 -141.327,37.914 v 0.004 c -0.083,0 -0.165,-0.002 -0.249,-0.002 -0.083,0 -0.165,0.002 -0.249,0.002 v -0.004 c -57.926,-0.084 -104.258,-14.632 -141.328,-37.914 -26.232,50.602 -64.281,137.532 -74.629,232.185 0,0 -108.913,-117.128 -76.842,-251.207 12.293,-51.391 36.955,-78.033 54.811,-91.161 -52.651,-103.245 -51.562,-222.568 -51.562,-222.568 132.768,-61.777 162.726,-161.516 170.897,-250.09 8.128,-88.115 87.665,-98.878 118.653,-98.987 v -0.005 c 0.079,0 0.169,0.002 0.249,0.003 0.08,-10e-4 0.17,-0.003 0.249,-0.003 v 0.005 c 30.988,0.109 110.526,10.872 118.653,98.987 8.17,88.574 38.128,188.313 170.898,250.09 0,0 1.088,119.323 -51.563,222.568 C -36.955,-78.033 -12.293,-51.391 0,0" /></g><g
           transform="translate(833.5479,721.979)"
           id="g100"><path
             id="path102"
             style="fill:none;stroke:#ffffff;stroke-width:8;stroke-linecap:butt;stroke-linejoin:miter;stroke-miterlimit:10;stroke-dasharray:none;stroke-opacity:1"
             d="m 0,0 c 32.071,134.079 -76.842,251.207 -76.842,251.207 -10.347,-94.653 -48.396,-181.583 -74.63,-232.185 -37.069,23.282 -83.401,37.83 -141.327,37.914 v 0.004 c -0.083,0 -0.165,-0.002 -0.249,-0.002 -0.083,0 -0.165,0.002 -0.249,0.002 v -0.004 c -57.926,-0.084 -104.258,-14.632 -141.328,-37.914 -26.232,50.602 -64.281,137.532 -74.629,232.185 0,0 -108.913,-117.128 -76.842,-251.207 12.293,-51.391 36.955,-78.033 54.811,-91.161 -52.651,-103.245 -51.562,-222.568 -51.562,-222.568 132.768,-61.777 162.726,-161.516 170.897,-250.09 8.128,-88.115 87.665,-98.878 118.653,-98.987 v -0.005 c 0.079,0 0.169,0.002 0.249,0.003 0.08,-10e-4 0.17,-0.003 0.249,-0.003 v 0.005 c 30.988,0.109 110.526,10.872 118.653,98.987 8.17,88.574 38.128,188.313 170.898,250.09 0,0 1.088,119.323 -51.563,222.568 C -36.955,-78.033 -12.293,-51.391 0,0 Z" /></g><g
           transform="translate(540.5,120.1553)"
           id="g104"><path
             id="path106"
             style="fill:#ffffff;fill-opacity:1;fill-rule:nonzero;stroke:none"
             d="m 0,0 -59.103,52.633 23.152,-107.555 c 0,0 28.212,-6.065 36.155,-6.065 7.943,0 35.747,6.065 35.747,6.065 L 59.103,52.633 Z" /></g><g
           transform="translate(587.6104,162.1084)"
           id="g108"><path
             id="path110"
             style="fill:#ffffff;fill-opacity:1;fill-rule:nonzero;stroke:none"
             d="m 0,0 c 0,0 31.223,171.032 37.976,213.521 6.753,42.49 37.635,255.565 112.856,228.573 75.222,-26.992 -50.568,-206 -86.295,-242.844 C 43.273,177.322 11.233,7.155 11.233,7.155 Z" /></g><g
           transform="translate(640.8838,369.6514)"
           id="g112"><path
             id="path114"
             style="fill:#04030f;fill-opacity:1;fill-rule:nonzero;stroke:none"
             d="m 0,0 c 10.91,-4.479 67.382,82.255 85.695,118.985 16.282,32.657 40.844,81.502 8.188,101.32 C 55.18,243.791 22.106,136.683 17.409,119.889 12.713,103.094 -15.104,6.2 0,0" /></g><g
           transform="translate(493.3589,162.1084)"
           id="g116"><path
             id="path118"
             style="fill:#ffffff;fill-opacity:1;fill-rule:nonzero;stroke:none"
             d="m 0,0 c 0,0 -31.223,171.032 -37.976,213.521 -6.753,42.49 -37.636,255.565 -112.857,228.573 -75.22,-26.992 50.569,-206 86.296,-242.844 C -43.274,177.322 -11.234,7.155 -11.234,7.155 Z" /></g><g
           transform="translate(440.085,369.6514)"
           id="g120"><path
             id="path122"
             style="fill:#04030f;fill-opacity:1;fill-rule:nonzero;stroke:none"
             d="m 0,0 c -10.91,-4.479 -67.382,82.255 -85.695,118.985 -16.282,32.657 -40.844,81.502 -8.187,101.32 38.702,23.486 71.776,-83.622 76.473,-100.416 C -12.712,103.094 15.105,6.2 0,0" /></g></g></g></g></svg>
