<svg xmlns="http://www.w3.org/2000/svg" xmlns:svg="http://www.w3.org/2000/svg" id="svg74" width="1440" height="1440" version="1.1" viewBox="0 0 1440 1440" xml:space="preserve"><metadata id="metadata80"/><defs id="defs78"><clipPath id="clipPath94" clipPathUnits="userSpaceOnUse"><path id="path92" d="M 0,1080 H 1080 V 0 H 0 Z"/></clipPath></defs><g id="g82" transform="matrix(1.3333333,0,0,-1.3333333,0,1440)"><circle id="path124" cx="540" cy="-540" r="535.894" transform="scale(1,-1)" style="fill:#04030f;fill-opacity:1;stroke-width:.75;stroke-linecap:round;stroke-linejoin:round;paint-order:markers fill stroke;stop-color:#000"/><g id="g88"><g id="g90" clip-path="url(#clipPath94)"><g id="g96" transform="translate(833.5479,721.979)"><path id="path98" d="m 0,0 c 32.071,134.079 -76.842,251.207 -76.842,251.207 -10.347,-94.653 -48.396,-181.583 -74.63,-232.185 -37.069,23.282 -83.401,37.83 -141.327,37.914 v 0.004 c -0.083,0 -0.165,-0.002 -0.249,-0.002 -0.083,0 -0.165,0.002 -0.249,0.002 v -0.004 c -57.926,-0.084 -104.258,-14.632 -141.328,-37.914 -26.232,50.602 -64.281,137.532 -74.629,232.185 0,0 -108.913,-117.128 -76.842,-251.207 12.293,-51.391 36.955,-78.033 54.811,-91.161 -52.651,-103.245 -51.562,-222.568 -51.562,-222.568 132.768,-61.777 162.726,-161.516 170.897,-250.09 8.128,-88.115 87.665,-98.878 118.653,-98.987 v -0.005 c 0.079,0 0.169,0.002 0.249,0.003 0.08,-10e-4 0.17,-0.003 0.249,-0.003 v 0.005 c 30.988,0.109 110.526,10.872 118.653,98.987 8.17,88.574 38.128,188.313 170.898,250.09 0,0 1.088,119.323 -51.563,222.568 C -36.955,-78.033 -12.293,-51.391 0,0" style="fill:#04030f;fill-opacity:1;fill-rule:nonzero;stroke:none"/></g><g id="g100" transform="translate(833.5479,721.979)"><path id="path102" d="m 0,0 c 32.071,134.079 -76.842,251.207 -76.842,251.207 -10.347,-94.653 -48.396,-181.583 -74.63,-232.185 -37.069,23.282 -83.401,37.83 -141.327,37.914 v 0.004 c -0.083,0 -0.165,-0.002 -0.249,-0.002 -0.083,0 -0.165,0.002 -0.249,0.002 v -0.004 c -57.926,-0.084 -104.258,-14.632 -141.328,-37.914 -26.232,50.602 -64.281,137.532 -74.629,232.185 0,0 -108.913,-117.128 -76.842,-251.207 12.293,-51.391 36.955,-78.033 54.811,-91.161 -52.651,-103.245 -51.562,-222.568 -51.562,-222.568 132.768,-61.777 162.726,-161.516 170.897,-250.09 8.128,-88.115 87.665,-98.878 118.653,-98.987 v -0.005 c 0.079,0 0.169,0.002 0.249,0.003 0.08,-10e-4 0.17,-0.003 0.249,-0.003 v 0.005 c 30.988,0.109 110.526,10.872 118.653,98.987 8.17,88.574 38.128,188.313 170.898,250.09 0,0 1.088,119.323 -51.563,222.568 C -36.955,-78.033 -12.293,-51.391 0,0 Z" style="fill:none;stroke:#fff;stroke-width:8;stroke-linecap:butt;stroke-linejoin:miter;stroke-miterlimit:10;stroke-dasharray:none;stroke-opacity:1"/></g><g id="g104" transform="translate(540.5,120.1553)"><path id="path106" d="m 0,0 -59.103,52.633 23.152,-107.555 c 0,0 28.212,-6.065 36.155,-6.065 7.943,0 35.747,6.065 35.747,6.065 L 59.103,52.633 Z" style="fill:#fff;fill-opacity:1;fill-rule:nonzero;stroke:none"/></g><g id="g108" transform="translate(587.6104,162.1084)"><path id="path110" d="m 0,0 c 0,0 31.223,171.032 37.976,213.521 6.753,42.49 37.635,255.565 112.856,228.573 75.222,-26.992 -50.568,-206 -86.295,-242.844 C 43.273,177.322 11.233,7.155 11.233,7.155 Z" style="fill:#fff;fill-opacity:1;fill-rule:nonzero;stroke:none"/></g><g id="g112" transform="translate(640.8838,369.6514)"><path id="path114" d="m 0,0 c 10.91,-4.479 67.382,82.255 85.695,118.985 16.282,32.657 40.844,81.502 8.188,101.32 C 55.18,243.791 22.106,136.683 17.409,119.889 12.713,103.094 -15.104,6.2 0,0" style="fill:#04030f;fill-opacity:1;fill-rule:nonzero;stroke:none"/></g><g id="g116" transform="translate(493.3589,162.1084)"><path id="path118" d="m 0,0 c 0,0 -31.223,171.032 -37.976,213.521 -6.753,42.49 -37.636,255.565 -112.857,228.573 -75.22,-26.992 50.569,-206 86.296,-242.844 C -43.274,177.322 -11.234,7.155 -11.234,7.155 Z" style="fill:#fff;fill-opacity:1;fill-rule:nonzero;stroke:none"/></g><g id="g120" transform="translate(440.085,369.6514)"><path id="path122" d="m 0,0 c -10.91,-4.479 -67.382,82.255 -85.695,118.985 -16.282,32.657 -40.844,81.502 -8.187,101.32 38.702,23.486 71.776,-83.622 76.473,-100.416 C -12.712,103.094 15.105,6.2 0,0" style="fill:#04030f;fill-opacity:1;fill-rule:nonzero;stroke:none"/></g></g></g></g></svg>